<?xml version="1.0" encoding="UTF-8" standalone="no"?>
<!DOCTYPE svg PUBLIC "-//W3C//DTD SVG 1.1//EN"
 "http://www.w3.org/Graphics/SVG/1.1/DTD/svg11.dtd">
<!-- Generated by graphviz version 2.43.0 (0)
 -->
<!-- Title: snakemake_dag Pages: 1 -->
<svg width="3248pt" height="332pt"
 viewBox="0.00 0.00 3248.00 332.00" xmlns="http://www.w3.org/2000/svg" xmlns:xlink="http://www.w3.org/1999/xlink">
<g id="graph0" class="graph" transform="scale(1 1) rotate(0) translate(4 328)">
<title>snakemake_dag</title>
<polygon fill="white" stroke="transparent" points="-4,4 -4,-328 3244,-328 3244,4 -4,4"/>
<!-- 0 -->
<g id="node1" class="node">
<title>0</title>
<path fill="none" stroke="#56b9d8" stroke-width="2" stroke-dasharray="5,2" d="M1728,-36C1728,-36 1698,-36 1698,-36 1692,-36 1686,-30 1686,-24 1686,-24 1686,-12 1686,-12 1686,-6 1692,0 1698,0 1698,0 1728,0 1728,0 1734,0 1740,-6 1740,-12 1740,-12 1740,-24 1740,-24 1740,-30 1734,-36 1728,-36"/>
<text text-anchor="middle" x="1713" y="-15.5" font-family="sans" font-size="10.00">all</text>
</g>
<!-- 1 -->
<g id="node2" class="node">
<title>1</title>
<path fill="none" stroke="#569ad8" stroke-width="2" stroke-dasharray="5,2" d="M876,-108C876,-108 710,-108 710,-108 704,-108 698,-102 698,-96 698,-96 698,-84 698,-84 698,-78 704,-72 710,-72 710,-72 876,-72 876,-72 882,-72 888,-78 888,-84 888,-84 888,-96 888,-96 888,-102 882,-108 876,-108"/>
<text text-anchor="middle" x="793" y="-93" font-family="sans" font-size="10.00">process_pbmc_atac</text>
<text text-anchor="middle" x="793" y="-82" font-family="sans" font-size="10.00">sample: pbmc_atac_10k_chromium</text>
</g>
<!-- 1&#45;&gt;0 -->
<g id="edge1" class="edge">
<title>1&#45;&gt;0</title>
<path fill="none" stroke="grey" stroke-width="2" d="M888.31,-74.3C894.96,-73.46 901.58,-72.68 908,-72 1203.09,-40.53 1561.17,-24.85 1675.81,-20.38"/>
<polygon fill="grey" stroke="grey" stroke-width="2" points="1675.97,-23.87 1685.83,-19.99 1675.7,-16.88 1675.97,-23.87"/>
</g>
<!-- 2 -->
<g id="node3" class="node">
<title>2</title>
<path fill="none" stroke="#d8b456" stroke-width="2" stroke-dasharray="5,2" d="M735.5,-180C735.5,-180 584.5,-180 584.5,-180 578.5,-180 572.5,-174 572.5,-168 572.5,-168 572.5,-156 572.5,-156 572.5,-150 578.5,-144 584.5,-144 584.5,-144 735.5,-144 735.5,-144 741.5,-144 747.5,-150 747.5,-156 747.5,-156 747.5,-168 747.5,-168 747.5,-174 741.5,-180 735.5,-180"/>
<text text-anchor="middle" x="660" y="-165" font-family="sans" font-size="10.00">download_pbmc_atac</text>
<text text-anchor="middle" x="660" y="-154" font-family="sans" font-size="10.00">dset: pbmc_atac_10k_chromium</text>
</g>
<!-- 2&#45;&gt;1 -->
<g id="edge17" class="edge">
<title>2&#45;&gt;1</title>
<path fill="none" stroke="grey" stroke-width="2" d="M692.54,-143.88C710.25,-134.55 732.35,-122.92 751.32,-112.94"/>
<polygon fill="grey" stroke="grey" stroke-width="2" points="753.12,-115.94 760.34,-108.19 749.86,-109.75 753.12,-115.94"/>
</g>
<!-- 3 -->
<g id="node4" class="node">
<title>3</title>
<path fill="none" stroke="#d6d856" stroke-width="2" stroke-dasharray="5,2" d="M1637,-252C1637,-252 1551,-252 1551,-252 1545,-252 1539,-246 1539,-240 1539,-240 1539,-228 1539,-228 1539,-222 1545,-216 1551,-216 1551,-216 1637,-216 1637,-216 1643,-216 1649,-222 1649,-228 1649,-228 1649,-240 1649,-240 1649,-246 1643,-252 1637,-252"/>
<text text-anchor="middle" x="1594" y="-231.5" font-family="sans" font-size="10.00">create_annotations</text>
</g>
<!-- 3&#45;&gt;1 -->
<g id="edge18" class="edge">
<title>3&#45;&gt;1</title>
<path fill="none" stroke="grey" stroke-width="2" d="M1538.81,-232.24C1329.78,-229.12 596.85,-215.63 563,-180 551.98,-168.4 553.04,-156.52 563,-144 571.33,-133.53 631.07,-119.94 687.57,-109.14"/>
<polygon fill="grey" stroke="grey" stroke-width="2" points="688.53,-112.53 697.7,-107.23 687.23,-105.65 688.53,-112.53"/>
</g>
<!-- 5 -->
<g id="node6" class="node">
<title>5</title>
<path fill="none" stroke="#569ad8" stroke-width="2" stroke-dasharray="5,2" d="M1102.5,-108C1102.5,-108 929.5,-108 929.5,-108 923.5,-108 917.5,-102 917.5,-96 917.5,-96 917.5,-84 917.5,-84 917.5,-78 923.5,-72 929.5,-72 929.5,-72 1102.5,-72 1102.5,-72 1108.5,-72 1114.5,-78 1114.5,-84 1114.5,-84 1114.5,-96 1114.5,-96 1114.5,-102 1108.5,-108 1102.5,-108"/>
<text text-anchor="middle" x="1016" y="-93" font-family="sans" font-size="10.00">process_pbmc_atac</text>
<text text-anchor="middle" x="1016" y="-82" font-family="sans" font-size="10.00">sample: pbmc_atac_10k_chromiumX</text>
</g>
<!-- 3&#45;&gt;5 -->
<g id="edge21" class="edge">
<title>3&#45;&gt;5</title>
<path fill="none" stroke="grey" stroke-width="2" d="M1538.83,-233.59C1366.34,-234.85 845.64,-234.11 795,-180 784.07,-168.32 785.09,-156.56 795,-144 802.83,-134.06 858.3,-120.78 911.7,-110"/>
<polygon fill="grey" stroke="grey" stroke-width="2" points="912.51,-113.4 921.63,-108.01 911.14,-106.54 912.51,-113.4"/>
</g>
<!-- 7 -->
<g id="node8" class="node">
<title>7</title>
<path fill="none" stroke="#569ad8" stroke-width="2" stroke-dasharray="5,2" d="M1260.5,-108C1260.5,-108 1149.5,-108 1149.5,-108 1143.5,-108 1137.5,-102 1137.5,-96 1137.5,-96 1137.5,-84 1137.5,-84 1137.5,-78 1143.5,-72 1149.5,-72 1149.5,-72 1260.5,-72 1260.5,-72 1266.5,-72 1272.5,-78 1272.5,-84 1272.5,-84 1272.5,-96 1272.5,-96 1272.5,-102 1266.5,-108 1260.5,-108"/>
<text text-anchor="middle" x="1205" y="-93" font-family="sans" font-size="10.00">process_pbmc_atac</text>
<text text-anchor="middle" x="1205" y="-82" font-family="sans" font-size="10.00">sample: pbmc_atac_10k</text>
</g>
<!-- 3&#45;&gt;7 -->
<g id="edge24" class="edge">
<title>3&#45;&gt;7</title>
<path fill="none" stroke="grey" stroke-width="2" d="M1538.62,-231.91C1403.71,-228.68 1066.62,-216.95 1033,-180 1022.23,-168.17 1023.5,-156.87 1033,-144 1039.13,-135.69 1084.8,-121.83 1127.54,-110.37"/>
<polygon fill="grey" stroke="grey" stroke-width="2" points="1128.68,-113.68 1137.45,-107.74 1126.89,-106.92 1128.68,-113.68"/>
</g>
<!-- 9 -->
<g id="node10" class="node">
<title>9</title>
<path fill="none" stroke="#569ad8" stroke-width="2" stroke-dasharray="5,2" d="M215.5,-108C215.5,-108 110.5,-108 110.5,-108 104.5,-108 98.5,-102 98.5,-96 98.5,-96 98.5,-84 98.5,-84 98.5,-78 104.5,-72 110.5,-72 110.5,-72 215.5,-72 215.5,-72 221.5,-72 227.5,-78 227.5,-84 227.5,-84 227.5,-96 227.5,-96 227.5,-102 221.5,-108 215.5,-108"/>
<text text-anchor="middle" x="163" y="-93" font-family="sans" font-size="10.00">process_pbmc_atac</text>
<text text-anchor="middle" x="163" y="-82" font-family="sans" font-size="10.00">sample: pbmc_atac_5k</text>
</g>
<!-- 3&#45;&gt;9 -->
<g id="edge27" class="edge">
<title>3&#45;&gt;9</title>
<path fill="none" stroke="grey" stroke-width="2" d="M1539,-232.99C1283.06,-232.69 219,-228.51 169,-180 152.98,-164.46 153.1,-138.21 156.26,-118.24"/>
<polygon fill="grey" stroke="grey" stroke-width="2" points="159.74,-118.66 158.18,-108.18 152.87,-117.34 159.74,-118.66"/>
</g>
<!-- 11 -->
<g id="node12" class="node">
<title>11</title>
<path fill="none" stroke="#569ad8" stroke-width="2" stroke-dasharray="5,2" d="M449.5,-108C449.5,-108 344.5,-108 344.5,-108 338.5,-108 332.5,-102 332.5,-96 332.5,-96 332.5,-84 332.5,-84 332.5,-78 338.5,-72 344.5,-72 344.5,-72 449.5,-72 449.5,-72 455.5,-72 461.5,-78 461.5,-84 461.5,-84 461.5,-96 461.5,-96 461.5,-102 455.5,-108 449.5,-108"/>
<text text-anchor="middle" x="397" y="-93" font-family="sans" font-size="10.00">process_pbmc_atac</text>
<text text-anchor="middle" x="397" y="-82" font-family="sans" font-size="10.00">sample: pbmc_atac_1k</text>
</g>
<!-- 3&#45;&gt;11 -->
<g id="edge30" class="edge">
<title>3&#45;&gt;11</title>
<path fill="none" stroke="grey" stroke-width="2" d="M1538.87,-232.76C1302.98,-231.45 388.77,-223.58 347,-180 328.84,-161.05 348.42,-134.25 368.15,-115.01"/>
<polygon fill="grey" stroke="grey" stroke-width="2" points="370.71,-117.42 375.65,-108.04 365.94,-112.29 370.71,-117.42"/>
</g>
<!-- 13 -->
<g id="node14" class="node">
<title>13</title>
<path fill="none" stroke="#569ad8" stroke-width="2" stroke-dasharray="5,2" d="M645.5,-108C645.5,-108 534.5,-108 534.5,-108 528.5,-108 522.5,-102 522.5,-96 522.5,-96 522.5,-84 522.5,-84 522.5,-78 528.5,-72 534.5,-72 534.5,-72 645.5,-72 645.5,-72 651.5,-72 657.5,-78 657.5,-84 657.5,-84 657.5,-96 657.5,-96 657.5,-102 651.5,-108 645.5,-108"/>
<text text-anchor="middle" x="590" y="-93" font-family="sans" font-size="10.00">process_pbmc_atac</text>
<text text-anchor="middle" x="590" y="-82" font-family="sans" font-size="10.00">sample: pbmc_atac_500</text>
</g>
<!-- 3&#45;&gt;13 -->
<g id="edge33" class="edge">
<title>3&#45;&gt;13</title>
<path fill="none" stroke="grey" stroke-width="2" d="M1538.94,-232.28C1328.66,-229.25 586.26,-216.04 552,-180 534.91,-162.02 550.18,-135.17 566.16,-115.67"/>
<polygon fill="grey" stroke="grey" stroke-width="2" points="568.84,-117.92 572.72,-108.07 563.54,-113.35 568.84,-117.92"/>
</g>
<!-- 15 -->
<g id="node16" class="node">
<title>15</title>
<path fill="none" stroke="#d85656" stroke-width="2" stroke-dasharray="5,2" d="M1472.5,-108C1472.5,-108 1305.5,-108 1305.5,-108 1299.5,-108 1293.5,-102 1293.5,-96 1293.5,-96 1293.5,-84 1293.5,-84 1293.5,-78 1299.5,-72 1305.5,-72 1305.5,-72 1472.5,-72 1472.5,-72 1478.5,-72 1484.5,-78 1484.5,-84 1484.5,-84 1484.5,-96 1484.5,-96 1484.5,-102 1478.5,-108 1472.5,-108"/>
<text text-anchor="middle" x="1389" y="-93" font-family="sans" font-size="10.00">process_pbmc_multiome</text>
<text text-anchor="middle" x="1389" y="-82" font-family="sans" font-size="10.00">sample: pbmc_multiome_3k_sorted</text>
</g>
<!-- 3&#45;&gt;15 -->
<g id="edge37" class="edge">
<title>3&#45;&gt;15</title>
<path fill="none" stroke="grey" stroke-width="2" d="M1554.35,-215.84C1534.55,-206.48 1510.69,-193.96 1491,-180 1472.02,-166.54 1470.41,-159.43 1453,-144 1441.9,-134.17 1429.39,-123.68 1418.4,-114.66"/>
<polygon fill="grey" stroke="grey" stroke-width="2" points="1420.3,-111.69 1410.34,-108.08 1415.87,-117.11 1420.3,-111.69"/>
</g>
<!-- 19 -->
<g id="node20" class="node">
<title>19</title>
<path fill="none" stroke="#d85656" stroke-width="2" stroke-dasharray="5,2" d="M1693.5,-108C1693.5,-108 1514.5,-108 1514.5,-108 1508.5,-108 1502.5,-102 1502.5,-96 1502.5,-96 1502.5,-84 1502.5,-84 1502.5,-78 1508.5,-72 1514.5,-72 1514.5,-72 1693.5,-72 1693.5,-72 1699.5,-72 1705.5,-78 1705.5,-84 1705.5,-84 1705.5,-96 1705.5,-96 1705.5,-102 1699.5,-108 1693.5,-108"/>
<text text-anchor="middle" x="1604" y="-93" font-family="sans" font-size="10.00">process_pbmc_multiome</text>
<text text-anchor="middle" x="1604" y="-82" font-family="sans" font-size="10.00">sample: pbmc_multiome_3k_unsorted</text>
</g>
<!-- 3&#45;&gt;19 -->
<g id="edge42" class="edge">
<title>3&#45;&gt;19</title>
<path fill="none" stroke="grey" stroke-width="2" d="M1649.11,-217.67C1667.61,-209.6 1686.26,-197.6 1697,-180 1705.33,-166.34 1705.04,-157.83 1697,-144 1689.41,-130.94 1677.27,-120.84 1664.24,-113.12"/>
<polygon fill="grey" stroke="grey" stroke-width="2" points="1665.57,-109.86 1655.11,-108.16 1662.22,-116.01 1665.57,-109.86"/>
</g>
<!-- 21 -->
<g id="node22" class="node">
<title>21</title>
<path fill="none" stroke="#d85656" stroke-width="2" stroke-dasharray="5,2" d="M1908.5,-108C1908.5,-108 1735.5,-108 1735.5,-108 1729.5,-108 1723.5,-102 1723.5,-96 1723.5,-96 1723.5,-84 1723.5,-84 1723.5,-78 1729.5,-72 1735.5,-72 1735.5,-72 1908.5,-72 1908.5,-72 1914.5,-72 1920.5,-78 1920.5,-84 1920.5,-84 1920.5,-96 1920.5,-96 1920.5,-102 1914.5,-108 1908.5,-108"/>
<text text-anchor="middle" x="1822" y="-93" font-family="sans" font-size="10.00">process_pbmc_multiome</text>
<text text-anchor="middle" x="1822" y="-82" font-family="sans" font-size="10.00">sample: pbmc_multiome_10k_sorted</text>
</g>
<!-- 3&#45;&gt;21 -->
<g id="edge46" class="edge">
<title>3&#45;&gt;21</title>
<path fill="none" stroke="grey" stroke-width="2" d="M1649.12,-232.76C1736.04,-231.07 1898.85,-222.2 1935,-180 1945.41,-167.85 1943.58,-157.5 1935,-144 1926.29,-130.29 1912.99,-120.07 1898.55,-112.47"/>
<polygon fill="grey" stroke="grey" stroke-width="2" points="1899.96,-109.26 1889.43,-108.06 1896.91,-115.56 1899.96,-109.26"/>
</g>
<!-- 23 -->
<g id="node24" class="node">
<title>23</title>
<path fill="none" stroke="#d85656" stroke-width="2" stroke-dasharray="5,2" d="M2135.5,-108C2135.5,-108 1950.5,-108 1950.5,-108 1944.5,-108 1938.5,-102 1938.5,-96 1938.5,-96 1938.5,-84 1938.5,-84 1938.5,-78 1944.5,-72 1950.5,-72 1950.5,-72 2135.5,-72 2135.5,-72 2141.5,-72 2147.5,-78 2147.5,-84 2147.5,-84 2147.5,-96 2147.5,-96 2147.5,-102 2141.5,-108 2135.5,-108"/>
<text text-anchor="middle" x="2043" y="-93" font-family="sans" font-size="10.00">process_pbmc_multiome</text>
<text text-anchor="middle" x="2043" y="-82" font-family="sans" font-size="10.00">sample: pbmc_multiome_10k_unsorted</text>
</g>
<!-- 3&#45;&gt;23 -->
<g id="edge50" class="edge">
<title>3&#45;&gt;23</title>
<path fill="none" stroke="grey" stroke-width="2" d="M1649.14,-229.07C1736.16,-222.16 1900.79,-206.07 1953,-180 1982.72,-165.16 2008.72,-136.81 2025.04,-116.08"/>
<polygon fill="grey" stroke="grey" stroke-width="2" points="2027.92,-118.07 2031.21,-108 2022.36,-113.82 2027.92,-118.07"/>
</g>
<!-- 25 -->
<g id="node26" class="node">
<title>25</title>
<path fill="none" stroke="#d85656" stroke-width="2" stroke-dasharray="5,2" d="M2408,-108C2408,-108 2216,-108 2216,-108 2210,-108 2204,-102 2204,-96 2204,-96 2204,-84 2204,-84 2204,-78 2210,-72 2216,-72 2216,-72 2408,-72 2408,-72 2414,-72 2420,-78 2420,-84 2420,-84 2420,-96 2420,-96 2420,-102 2414,-108 2408,-108"/>
<text text-anchor="middle" x="2312" y="-93" font-family="sans" font-size="10.00">process_pbmc_multiome</text>
<text text-anchor="middle" x="2312" y="-82" font-family="sans" font-size="10.00">sample: pbmc_multiome_10k_chromium</text>
</g>
<!-- 3&#45;&gt;25 -->
<g id="edge54" class="edge">
<title>3&#45;&gt;25</title>
<path fill="none" stroke="grey" stroke-width="2" d="M1649.05,-231.32C1823.5,-225.75 2354.08,-206.66 2379,-180 2389.93,-168.31 2385.97,-158.4 2379,-144 2373.24,-132.1 2363.36,-122.06 2352.94,-114.02"/>
<polygon fill="grey" stroke="grey" stroke-width="2" points="2354.7,-110.98 2344.53,-108.02 2350.63,-116.68 2354.7,-110.98"/>
</g>
<!-- 27 -->
<g id="node28" class="node">
<title>27</title>
<path fill="none" stroke="#d85656" stroke-width="2" stroke-dasharray="5,2" d="M2649.5,-108C2649.5,-108 2450.5,-108 2450.5,-108 2444.5,-108 2438.5,-102 2438.5,-96 2438.5,-96 2438.5,-84 2438.5,-84 2438.5,-78 2444.5,-72 2450.5,-72 2450.5,-72 2649.5,-72 2649.5,-72 2655.5,-72 2661.5,-78 2661.5,-84 2661.5,-84 2661.5,-96 2661.5,-96 2661.5,-102 2655.5,-108 2649.5,-108"/>
<text text-anchor="middle" x="2550" y="-93" font-family="sans" font-size="10.00">process_pbmc_multiome</text>
<text text-anchor="middle" x="2550" y="-82" font-family="sans" font-size="10.00">sample: pbmc_multiome_10k_chromiumX</text>
</g>
<!-- 3&#45;&gt;27 -->
<g id="edge58" class="edge">
<title>3&#45;&gt;27</title>
<path fill="none" stroke="grey" stroke-width="2" d="M1649,-231.22C1861.63,-224.22 2618.84,-198.05 2636,-180 2647.02,-168.4 2643.8,-157.97 2636,-144 2628.78,-131.06 2616.95,-120.89 2604.35,-113.07"/>
<polygon fill="grey" stroke="grey" stroke-width="2" points="2605.96,-109.96 2595.55,-108.02 2602.48,-116.03 2605.96,-109.96"/>
</g>
<!-- 29 -->
<g id="node30" class="node">
<title>29</title>
<path fill="none" stroke="#56d8d8" stroke-width="2" stroke-dasharray="5,2" d="M2966,-108C2966,-108 2874,-108 2874,-108 2868,-108 2862,-102 2862,-96 2862,-96 2862,-84 2862,-84 2862,-78 2868,-72 2874,-72 2874,-72 2966,-72 2966,-72 2972,-72 2978,-78 2978,-84 2978,-84 2978,-96 2978,-96 2978,-102 2972,-108 2966,-108"/>
<text text-anchor="middle" x="2920" y="-87.5" font-family="sans" font-size="10.00">process_bmmc_atac</text>
</g>
<!-- 3&#45;&gt;29 -->
<g id="edge62" class="edge">
<title>3&#45;&gt;29</title>
<path fill="none" stroke="grey" stroke-width="2" d="M1649.02,-231.68C1894.25,-225.7 2876.69,-200.49 2901,-180 2918.51,-165.24 2922.28,-138.66 2922.26,-118.38"/>
<polygon fill="grey" stroke="grey" stroke-width="2" points="2925.75,-118.04 2921.94,-108.16 2918.75,-118.27 2925.75,-118.04"/>
</g>
<!-- 30 -->
<g id="node31" class="node">
<title>30</title>
<path fill="none" stroke="#56d87b" stroke-width="2" stroke-dasharray="5,2" d="M3223.5,-180C3223.5,-180 3104.5,-180 3104.5,-180 3098.5,-180 3092.5,-174 3092.5,-168 3092.5,-168 3092.5,-156 3092.5,-156 3092.5,-150 3098.5,-144 3104.5,-144 3104.5,-144 3223.5,-144 3223.5,-144 3229.5,-144 3235.5,-150 3235.5,-156 3235.5,-156 3235.5,-168 3235.5,-168 3235.5,-174 3229.5,-180 3223.5,-180"/>
<text text-anchor="middle" x="3164" y="-159.5" font-family="sans" font-size="10.00">process_bmmc_multiome</text>
</g>
<!-- 3&#45;&gt;30 -->
<g id="edge64" class="edge">
<title>3&#45;&gt;30</title>
<path fill="none" stroke="grey" stroke-width="2" d="M1649.12,-231.6C1896.34,-225.24 2898.58,-198.63 3082.14,-179.87"/>
<polygon fill="grey" stroke="grey" stroke-width="2" points="3082.57,-183.34 3092.12,-178.75 3081.79,-176.38 3082.57,-183.34"/>
</g>
<!-- 4 -->
<g id="node5" class="node">
<title>4</title>
<path fill="none" stroke="#59d856" stroke-width="2" stroke-dasharray="5,2" d="M1237.5,-180C1237.5,-180 1194.5,-180 1194.5,-180 1188.5,-180 1182.5,-174 1182.5,-168 1182.5,-168 1182.5,-156 1182.5,-156 1182.5,-150 1188.5,-144 1194.5,-144 1194.5,-144 1237.5,-144 1237.5,-144 1243.5,-144 1249.5,-150 1249.5,-156 1249.5,-156 1249.5,-168 1249.5,-168 1249.5,-174 1243.5,-180 1237.5,-180"/>
<text text-anchor="middle" x="1216" y="-159.5" font-family="sans" font-size="10.00">get_peaks</text>
</g>
<!-- 4&#45;&gt;1 -->
<g id="edge19" class="edge">
<title>4&#45;&gt;1</title>
<path fill="none" stroke="grey" stroke-width="2" d="M1182.46,-146.85C1179.29,-145.79 1176.11,-144.81 1173,-144 1058.01,-113.93 1025.68,-124.69 908,-108 904.75,-107.54 901.45,-107.07 898.12,-106.59"/>
<polygon fill="grey" stroke="grey" stroke-width="2" points="898.46,-103.1 888.06,-105.14 897.46,-110.03 898.46,-103.1"/>
</g>
<!-- 4&#45;&gt;5 -->
<g id="edge22" class="edge">
<title>4&#45;&gt;5</title>
<path fill="none" stroke="grey" stroke-width="2" d="M1182.26,-147.47C1179.14,-146.28 1176.02,-145.1 1173,-144 1141.93,-132.62 1107.1,-120.77 1078.15,-111.17"/>
<polygon fill="grey" stroke="grey" stroke-width="2" points="1079.16,-107.82 1068.57,-108 1076.96,-114.47 1079.16,-107.82"/>
</g>
<!-- 4&#45;&gt;7 -->
<g id="edge25" class="edge">
<title>4&#45;&gt;7</title>
<path fill="none" stroke="grey" stroke-width="2" d="M1213.28,-143.7C1212.07,-135.98 1210.61,-126.71 1209.26,-118.11"/>
<polygon fill="grey" stroke="grey" stroke-width="2" points="1212.7,-117.44 1207.69,-108.1 1205.78,-118.53 1212.7,-117.44"/>
</g>
<!-- 4&#45;&gt;9 -->
<g id="edge28" class="edge">
<title>4&#45;&gt;9</title>
<path fill="none" stroke="grey" stroke-width="2" d="M1182.05,-146.39C1179.03,-145.45 1175.98,-144.63 1173,-144 988.07,-104.7 511.54,-121.99 323,-108 295.09,-105.93 264.51,-102.87 237.64,-99.92"/>
<polygon fill="grey" stroke="grey" stroke-width="2" points="237.86,-96.43 227.53,-98.8 237.08,-103.38 237.86,-96.43"/>
</g>
<!-- 4&#45;&gt;11 -->
<g id="edge31" class="edge">
<title>4&#45;&gt;11</title>
<path fill="none" stroke="grey" stroke-width="2" d="M1182.04,-146.43C1179.02,-145.49 1175.98,-144.65 1173,-144 886.03,-81.18 805.3,-137.33 513,-108 499.56,-106.65 485.28,-104.86 471.52,-102.94"/>
<polygon fill="grey" stroke="grey" stroke-width="2" points="471.99,-99.48 461.6,-101.53 471.01,-106.41 471.99,-99.48"/>
</g>
<!-- 4&#45;&gt;13 -->
<g id="edge34" class="edge">
<title>4&#45;&gt;13</title>
<path fill="none" stroke="grey" stroke-width="2" d="M1182.03,-146.5C1179.01,-145.54 1175.97,-144.68 1173,-144 962.75,-95.8 903.1,-134.28 689,-108 681.98,-107.14 674.7,-106.12 667.41,-105.02"/>
<polygon fill="grey" stroke="grey" stroke-width="2" points="667.93,-101.56 657.51,-103.48 666.85,-108.48 667.93,-101.56"/>
</g>
<!-- 4&#45;&gt;15 -->
<g id="edge38" class="edge">
<title>4&#45;&gt;15</title>
<path fill="none" stroke="grey" stroke-width="2" d="M1249.77,-147.34C1274.68,-137.26 1309.03,-123.36 1337.38,-111.89"/>
<polygon fill="grey" stroke="grey" stroke-width="2" points="1338.78,-115.09 1346.74,-108.1 1336.16,-108.61 1338.78,-115.09"/>
</g>
<!-- 4&#45;&gt;19 -->
<g id="edge43" class="edge">
<title>4&#45;&gt;19</title>
<path fill="none" stroke="grey" stroke-width="2" d="M1249.56,-146.91C1252.72,-145.83 1255.9,-144.84 1259,-144 1259.72,-143.8 1391.76,-123.54 1492.25,-108.13"/>
<polygon fill="grey" stroke="grey" stroke-width="2" points="1492.83,-111.58 1502.18,-106.61 1491.77,-104.66 1492.83,-111.58"/>
</g>
<!-- 4&#45;&gt;21 -->
<g id="edge47" class="edge">
<title>4&#45;&gt;21</title>
<path fill="none" stroke="grey" stroke-width="2" d="M1249.97,-146.51C1252.99,-145.55 1256.03,-144.69 1259,-144 1453.43,-98.94 1510.71,-130.73 1713.38,-107.99"/>
<polygon fill="grey" stroke="grey" stroke-width="2" points="1713.92,-111.45 1723.45,-106.83 1713.12,-104.5 1713.92,-111.45"/>
</g>
<!-- 4&#45;&gt;23 -->
<g id="edge51" class="edge">
<title>4&#45;&gt;23</title>
<path fill="none" stroke="grey" stroke-width="2" d="M1249.96,-146.43C1252.98,-145.48 1256.02,-144.65 1259,-144 1547.06,-81.07 1630.44,-136.74 1928.15,-108.01"/>
<polygon fill="grey" stroke="grey" stroke-width="2" points="1928.77,-111.46 1938.37,-106.99 1928.08,-104.5 1928.77,-111.46"/>
</g>
<!-- 4&#45;&gt;25 -->
<g id="edge55" class="edge">
<title>4&#45;&gt;25</title>
<path fill="none" stroke="grey" stroke-width="2" d="M1249.95,-146.38C1252.97,-145.45 1256.02,-144.63 1259,-144 1454.18,-102.75 1957.06,-122.81 2156,-108 2168.22,-107.09 2180.96,-105.98 2193.66,-104.76"/>
<polygon fill="grey" stroke="grey" stroke-width="2" points="2194.22,-108.22 2203.83,-103.76 2193.54,-101.25 2194.22,-108.22"/>
</g>
<!-- 4&#45;&gt;27 -->
<g id="edge59" class="edge">
<title>4&#45;&gt;27</title>
<path fill="none" stroke="grey" stroke-width="2" d="M1249.94,-146.35C1252.96,-145.43 1256.01,-144.62 1259,-144 1510.64,-92.04 2153.86,-129.2 2428.3,-107.96"/>
<polygon fill="grey" stroke="grey" stroke-width="2" points="2428.62,-111.44 2438.3,-107.14 2428.05,-104.47 2428.62,-111.44"/>
</g>
<!-- 5&#45;&gt;0 -->
<g id="edge2" class="edge">
<title>5&#45;&gt;0</title>
<path fill="none" stroke="grey" stroke-width="2" d="M1114.59,-73.7C1119.12,-73.1 1123.61,-72.53 1128,-72 1334.42,-47.01 1583.12,-28.21 1675.81,-21.59"/>
<polygon fill="grey" stroke="grey" stroke-width="2" points="1676.09,-25.08 1685.82,-20.88 1675.6,-18.09 1676.09,-25.08"/>
</g>
<!-- 6 -->
<g id="node7" class="node">
<title>6</title>
<path fill="none" stroke="#d8b456" stroke-width="2" stroke-dasharray="5,2" d="M974,-180C974,-180 816,-180 816,-180 810,-180 804,-174 804,-168 804,-168 804,-156 804,-156 804,-150 810,-144 816,-144 816,-144 974,-144 974,-144 980,-144 986,-150 986,-156 986,-156 986,-168 986,-168 986,-174 980,-180 974,-180"/>
<text text-anchor="middle" x="895" y="-165" font-family="sans" font-size="10.00">download_pbmc_atac</text>
<text text-anchor="middle" x="895" y="-154" font-family="sans" font-size="10.00">dset: pbmc_atac_10k_chromiumX</text>
</g>
<!-- 6&#45;&gt;5 -->
<g id="edge20" class="edge">
<title>6&#45;&gt;5</title>
<path fill="none" stroke="grey" stroke-width="2" d="M924.6,-143.88C940.57,-134.64 960.46,-123.13 977.61,-113.21"/>
<polygon fill="grey" stroke="grey" stroke-width="2" points="979.38,-116.23 986.29,-108.19 975.88,-110.17 979.38,-116.23"/>
</g>
<!-- 7&#45;&gt;0 -->
<g id="edge3" class="edge">
<title>7&#45;&gt;0</title>
<path fill="none" stroke="grey" stroke-width="2" d="M1272.58,-74.04C1276.44,-73.32 1280.27,-72.63 1284,-72 1427.88,-47.68 1600.68,-29.73 1675.47,-22.5"/>
<polygon fill="grey" stroke="grey" stroke-width="2" points="1676.15,-25.95 1685.77,-21.51 1675.49,-18.98 1676.15,-25.95"/>
</g>
<!-- 8 -->
<g id="node9" class="node">
<title>8</title>
<path fill="none" stroke="#d8b456" stroke-width="2" stroke-dasharray="5,2" d="M1152,-180C1152,-180 1054,-180 1054,-180 1048,-180 1042,-174 1042,-168 1042,-168 1042,-156 1042,-156 1042,-150 1048,-144 1054,-144 1054,-144 1152,-144 1152,-144 1158,-144 1164,-150 1164,-156 1164,-156 1164,-168 1164,-168 1164,-174 1158,-180 1152,-180"/>
<text text-anchor="middle" x="1103" y="-165" font-family="sans" font-size="10.00">download_pbmc_atac</text>
<text text-anchor="middle" x="1103" y="-154" font-family="sans" font-size="10.00">dset: pbmc_atac_10k</text>
</g>
<!-- 8&#45;&gt;7 -->
<g id="edge23" class="edge">
<title>8&#45;&gt;7</title>
<path fill="none" stroke="grey" stroke-width="2" d="M1127.95,-143.88C1141.04,-134.89 1157.26,-123.76 1171.44,-114.03"/>
<polygon fill="grey" stroke="grey" stroke-width="2" points="1173.69,-116.73 1179.95,-108.19 1169.73,-110.96 1173.69,-116.73"/>
</g>
<!-- 9&#45;&gt;0 -->
<g id="edge4" class="edge">
<title>9&#45;&gt;0</title>
<path fill="none" stroke="grey" stroke-width="2" d="M227.53,-81.14C256.65,-77.85 291.52,-74.27 323,-72 859.26,-33.33 1514.07,-21.84 1675.65,-19.5"/>
<polygon fill="grey" stroke="grey" stroke-width="2" points="1676.05,-22.99 1686,-19.35 1675.95,-15.99 1676.05,-22.99"/>
</g>
<!-- 10 -->
<g id="node11" class="node">
<title>10</title>
<path fill="none" stroke="#d8b456" stroke-width="2" stroke-dasharray="5,2" d="M110,-180C110,-180 12,-180 12,-180 6,-180 0,-174 0,-168 0,-168 0,-156 0,-156 0,-150 6,-144 12,-144 12,-144 110,-144 110,-144 116,-144 122,-150 122,-156 122,-156 122,-168 122,-168 122,-174 116,-180 110,-180"/>
<text text-anchor="middle" x="61" y="-165" font-family="sans" font-size="10.00">download_pbmc_atac</text>
<text text-anchor="middle" x="61" y="-154" font-family="sans" font-size="10.00">dset: pbmc_atac_5k</text>
</g>
<!-- 10&#45;&gt;9 -->
<g id="edge26" class="edge">
<title>10&#45;&gt;9</title>
<path fill="none" stroke="grey" stroke-width="2" d="M85.95,-143.88C99.04,-134.89 115.26,-123.76 129.44,-114.03"/>
<polygon fill="grey" stroke="grey" stroke-width="2" points="131.69,-116.73 137.95,-108.19 127.73,-110.96 131.69,-116.73"/>
</g>
<!-- 11&#45;&gt;0 -->
<g id="edge5" class="edge">
<title>11&#45;&gt;0</title>
<path fill="none" stroke="grey" stroke-width="2" d="M461.59,-78.35C478.29,-75.92 496.28,-73.59 513,-72 969.71,-28.56 1527.66,-20.64 1675.57,-19.27"/>
<polygon fill="grey" stroke="grey" stroke-width="2" points="1675.92,-22.77 1685.89,-19.18 1675.86,-15.77 1675.92,-22.77"/>
</g>
<!-- 12 -->
<g id="node13" class="node">
<title>12</title>
<path fill="none" stroke="#d8b456" stroke-width="2" stroke-dasharray="5,2" d="M288,-180C288,-180 190,-180 190,-180 184,-180 178,-174 178,-168 178,-168 178,-156 178,-156 178,-150 184,-144 190,-144 190,-144 288,-144 288,-144 294,-144 300,-150 300,-156 300,-156 300,-168 300,-168 300,-174 294,-180 288,-180"/>
<text text-anchor="middle" x="239" y="-165" font-family="sans" font-size="10.00">download_pbmc_atac</text>
<text text-anchor="middle" x="239" y="-154" font-family="sans" font-size="10.00">dset: pbmc_atac_1k</text>
</g>
<!-- 12&#45;&gt;11 -->
<g id="edge29" class="edge">
<title>12&#45;&gt;11</title>
<path fill="none" stroke="grey" stroke-width="2" d="M277.65,-143.88C299.25,-134.31 326.35,-122.3 349.27,-112.15"/>
<polygon fill="grey" stroke="grey" stroke-width="2" points="350.75,-115.32 358.47,-108.07 347.91,-108.92 350.75,-115.32"/>
</g>
<!-- 13&#45;&gt;0 -->
<g id="edge6" class="edge">
<title>13&#45;&gt;0</title>
<path fill="none" stroke="grey" stroke-width="2" d="M657.75,-76.27C668.19,-74.63 678.86,-73.13 689,-72 1072.7,-29.28 1541.21,-20.9 1675.45,-19.34"/>
<polygon fill="grey" stroke="grey" stroke-width="2" points="1675.65,-22.84 1685.61,-19.23 1675.57,-15.84 1675.65,-22.84"/>
</g>
<!-- 14 -->
<g id="node15" class="node">
<title>14</title>
<path fill="none" stroke="#d8b456" stroke-width="2" stroke-dasharray="5,2" d="M466,-180C466,-180 368,-180 368,-180 362,-180 356,-174 356,-168 356,-168 356,-156 356,-156 356,-150 362,-144 368,-144 368,-144 466,-144 466,-144 472,-144 478,-150 478,-156 478,-156 478,-168 478,-168 478,-174 472,-180 466,-180"/>
<text text-anchor="middle" x="417" y="-165" font-family="sans" font-size="10.00">download_pbmc_atac</text>
<text text-anchor="middle" x="417" y="-154" font-family="sans" font-size="10.00">dset: pbmc_atac_500</text>
</g>
<!-- 14&#45;&gt;13 -->
<g id="edge32" class="edge">
<title>14&#45;&gt;13</title>
<path fill="none" stroke="grey" stroke-width="2" d="M459.32,-143.88C483.18,-134.22 513.17,-122.09 538.4,-111.88"/>
<polygon fill="grey" stroke="grey" stroke-width="2" points="539.86,-115.06 547.82,-108.07 537.23,-108.57 539.86,-115.06"/>
</g>
<!-- 15&#45;&gt;0 -->
<g id="edge7" class="edge">
<title>15&#45;&gt;0</title>
<path fill="none" stroke="grey" stroke-width="2" d="M1467.85,-71.97C1534.09,-57.65 1625.78,-37.84 1676.16,-26.96"/>
<polygon fill="grey" stroke="grey" stroke-width="2" points="1676.93,-30.37 1685.96,-24.84 1675.45,-23.53 1676.93,-30.37"/>
</g>
<!-- 16 -->
<g id="node17" class="node">
<title>16</title>
<path fill="none" stroke="#567bd8" stroke-width="2" stroke-dasharray="5,2" d="M1432,-180C1432,-180 1280,-180 1280,-180 1274,-180 1268,-174 1268,-168 1268,-168 1268,-156 1268,-156 1268,-150 1274,-144 1280,-144 1280,-144 1432,-144 1432,-144 1438,-144 1444,-150 1444,-156 1444,-156 1444,-168 1444,-168 1444,-174 1438,-180 1432,-180"/>
<text text-anchor="middle" x="1356" y="-165" font-family="sans" font-size="10.00">download_pbmc_multiome</text>
<text text-anchor="middle" x="1356" y="-154" font-family="sans" font-size="10.00">dset: pbmc_multiome_3k_sorted</text>
</g>
<!-- 16&#45;&gt;15 -->
<g id="edge35" class="edge">
<title>16&#45;&gt;15</title>
<path fill="none" stroke="grey" stroke-width="2" d="M1364.16,-143.7C1367.91,-135.73 1372.45,-126.1 1376.62,-117.26"/>
<polygon fill="grey" stroke="grey" stroke-width="2" points="1379.84,-118.64 1380.94,-108.1 1373.51,-115.66 1379.84,-118.64"/>
</g>
<!-- 17 -->
<g id="node18" class="node">
<title>17</title>
<path fill="none" stroke="#b6d856" stroke-width="2" stroke-dasharray="5,2" d="M2358,-180C2358,-180 2244,-180 2244,-180 2238,-180 2232,-174 2232,-168 2232,-168 2232,-156 2232,-156 2232,-150 2238,-144 2244,-144 2244,-144 2358,-144 2358,-144 2364,-144 2370,-150 2370,-156 2370,-156 2370,-168 2370,-168 2370,-174 2364,-180 2358,-180"/>
<text text-anchor="middle" x="2301" y="-159.5" font-family="sans" font-size="10.00">process_pbmc_reference</text>
</g>
<!-- 17&#45;&gt;0 -->
<g id="edge15" class="edge">
<title>17&#45;&gt;0</title>
<path fill="none" stroke="grey" stroke-width="2" d="M2260.24,-143.9C2239.87,-134.56 2215.31,-122.03 2195,-108 2175.59,-94.59 2177.42,-81.88 2156,-72 2083.96,-38.76 1843.54,-24.78 1750.35,-20.52"/>
<polygon fill="grey" stroke="grey" stroke-width="2" points="1750.4,-17.02 1740.25,-20.07 1750.09,-24.01 1750.4,-17.02"/>
</g>
<!-- 17&#45;&gt;15 -->
<g id="edge36" class="edge">
<title>17&#45;&gt;15</title>
<path fill="none" stroke="grey" stroke-width="2" d="M2231.78,-145.29C2228.82,-144.82 2225.89,-144.38 2223,-144 1904.29,-101.71 1817.79,-141.42 1494.83,-108.12"/>
<polygon fill="grey" stroke="grey" stroke-width="2" points="1495.03,-104.62 1484.72,-107.06 1494.3,-111.58 1495.03,-104.62"/>
</g>
<!-- 17&#45;&gt;19 -->
<g id="edge41" class="edge">
<title>17&#45;&gt;19</title>
<path fill="none" stroke="grey" stroke-width="2" d="M2231.77,-145.37C2228.81,-144.87 2225.88,-144.41 2223,-144 2001.8,-112.24 1941.14,-132.72 1715.71,-108.13"/>
<polygon fill="grey" stroke="grey" stroke-width="2" points="1715.87,-104.63 1705.55,-107.01 1715.1,-111.59 1715.87,-104.63"/>
</g>
<!-- 17&#45;&gt;21 -->
<g id="edge45" class="edge">
<title>17&#45;&gt;21</title>
<path fill="none" stroke="grey" stroke-width="2" d="M2231.74,-145.56C2228.79,-145.01 2225.87,-144.49 2223,-144 2096.38,-122.5 2061.07,-126.13 1930.5,-108.18"/>
<polygon fill="grey" stroke="grey" stroke-width="2" points="1930.9,-104.7 1920.51,-106.79 1929.93,-111.63 1930.9,-104.7"/>
</g>
<!-- 17&#45;&gt;23 -->
<g id="edge49" class="edge">
<title>17&#45;&gt;23</title>
<path fill="none" stroke="grey" stroke-width="2" d="M2238.22,-143.97C2201.38,-133.97 2154.67,-121.3 2116.18,-110.85"/>
<polygon fill="grey" stroke="grey" stroke-width="2" points="2116.63,-107.35 2106.07,-108.11 2114.8,-114.11 2116.63,-107.35"/>
</g>
<!-- 17&#45;&gt;25 -->
<g id="edge53" class="edge">
<title>17&#45;&gt;25</title>
<path fill="none" stroke="grey" stroke-width="2" d="M2303.72,-143.7C2304.93,-135.98 2306.39,-126.71 2307.74,-118.11"/>
<polygon fill="grey" stroke="grey" stroke-width="2" points="2311.22,-118.53 2309.31,-108.1 2304.3,-117.44 2311.22,-118.53"/>
</g>
<!-- 17&#45;&gt;27 -->
<g id="edge57" class="edge">
<title>17&#45;&gt;27</title>
<path fill="none" stroke="grey" stroke-width="2" d="M2361.59,-143.97C2397.14,-133.97 2442.22,-121.3 2479.38,-110.85"/>
<polygon fill="grey" stroke="grey" stroke-width="2" points="2480.45,-114.19 2489.13,-108.11 2478.56,-107.45 2480.45,-114.19"/>
</g>
<!-- 18 -->
<g id="node19" class="node">
<title>18</title>
<path fill="none" stroke="#d87556" stroke-width="2" stroke-dasharray="5,2" d="M2363,-252C2363,-252 2239,-252 2239,-252 2233,-252 2227,-246 2227,-240 2227,-240 2227,-228 2227,-228 2227,-222 2233,-216 2239,-216 2239,-216 2363,-216 2363,-216 2369,-216 2375,-222 2375,-228 2375,-228 2375,-240 2375,-240 2375,-246 2369,-252 2363,-252"/>
<text text-anchor="middle" x="2301" y="-237" font-family="sans" font-size="10.00">download_pbmc_reference</text>
<text text-anchor="middle" x="2301" y="-226" font-family="sans" font-size="10.00">dset: pbmc_reference</text>
</g>
<!-- 18&#45;&gt;17 -->
<g id="edge39" class="edge">
<title>18&#45;&gt;17</title>
<path fill="none" stroke="grey" stroke-width="2" d="M2301,-215.7C2301,-207.98 2301,-198.71 2301,-190.11"/>
<polygon fill="grey" stroke="grey" stroke-width="2" points="2304.5,-190.1 2301,-180.1 2297.5,-190.1 2304.5,-190.1"/>
</g>
<!-- 19&#45;&gt;0 -->
<g id="edge8" class="edge">
<title>19&#45;&gt;0</title>
<path fill="none" stroke="grey" stroke-width="2" d="M1630.66,-71.88C1644.78,-62.81 1662.31,-51.55 1677.56,-41.76"/>
<polygon fill="grey" stroke="grey" stroke-width="2" points="1679.71,-44.54 1686.23,-36.19 1675.93,-38.65 1679.71,-44.54"/>
</g>
<!-- 20 -->
<g id="node21" class="node">
<title>20</title>
<path fill="none" stroke="#567bd8" stroke-width="2" stroke-dasharray="5,2" d="M1676,-180C1676,-180 1512,-180 1512,-180 1506,-180 1500,-174 1500,-168 1500,-168 1500,-156 1500,-156 1500,-150 1506,-144 1512,-144 1512,-144 1676,-144 1676,-144 1682,-144 1688,-150 1688,-156 1688,-156 1688,-168 1688,-168 1688,-174 1682,-180 1676,-180"/>
<text text-anchor="middle" x="1594" y="-165" font-family="sans" font-size="10.00">download_pbmc_multiome</text>
<text text-anchor="middle" x="1594" y="-154" font-family="sans" font-size="10.00">dset: pbmc_multiome_3k_unsorted</text>
</g>
<!-- 20&#45;&gt;19 -->
<g id="edge40" class="edge">
<title>20&#45;&gt;19</title>
<path fill="none" stroke="grey" stroke-width="2" d="M1596.47,-143.7C1597.57,-135.98 1598.9,-126.71 1600.13,-118.11"/>
<polygon fill="grey" stroke="grey" stroke-width="2" points="1603.61,-118.5 1601.56,-108.1 1596.68,-117.51 1603.61,-118.5"/>
</g>
<!-- 21&#45;&gt;0 -->
<g id="edge9" class="edge">
<title>21&#45;&gt;0</title>
<path fill="none" stroke="grey" stroke-width="2" d="M1795.34,-71.88C1781.22,-62.81 1763.69,-51.55 1748.44,-41.76"/>
<polygon fill="grey" stroke="grey" stroke-width="2" points="1750.07,-38.65 1739.77,-36.19 1746.29,-44.54 1750.07,-38.65"/>
</g>
<!-- 22 -->
<g id="node23" class="node">
<title>22</title>
<path fill="none" stroke="#567bd8" stroke-width="2" stroke-dasharray="5,2" d="M1914,-180C1914,-180 1756,-180 1756,-180 1750,-180 1744,-174 1744,-168 1744,-168 1744,-156 1744,-156 1744,-150 1750,-144 1756,-144 1756,-144 1914,-144 1914,-144 1920,-144 1926,-150 1926,-156 1926,-156 1926,-168 1926,-168 1926,-174 1920,-180 1914,-180"/>
<text text-anchor="middle" x="1835" y="-165" font-family="sans" font-size="10.00">download_pbmc_multiome</text>
<text text-anchor="middle" x="1835" y="-154" font-family="sans" font-size="10.00">dset: pbmc_multiome_10k_sorted</text>
</g>
<!-- 22&#45;&gt;21 -->
<g id="edge44" class="edge">
<title>22&#45;&gt;21</title>
<path fill="none" stroke="grey" stroke-width="2" d="M1831.79,-143.7C1830.35,-135.98 1828.63,-126.71 1827.04,-118.11"/>
<polygon fill="grey" stroke="grey" stroke-width="2" points="1830.44,-117.3 1825.18,-108.1 1823.56,-118.58 1830.44,-117.3"/>
</g>
<!-- 23&#45;&gt;0 -->
<g id="edge10" class="edge">
<title>23&#45;&gt;0</title>
<path fill="none" stroke="grey" stroke-width="2" d="M1962.69,-71.97C1895.05,-57.62 1801.34,-37.74 1750.12,-26.87"/>
<polygon fill="grey" stroke="grey" stroke-width="2" points="1750.66,-23.41 1740.16,-24.76 1749.21,-30.26 1750.66,-23.41"/>
</g>
<!-- 24 -->
<g id="node25" class="node">
<title>24</title>
<path fill="none" stroke="#567bd8" stroke-width="2" stroke-dasharray="5,2" d="M2202,-180C2202,-180 2032,-180 2032,-180 2026,-180 2020,-174 2020,-168 2020,-168 2020,-156 2020,-156 2020,-150 2026,-144 2032,-144 2032,-144 2202,-144 2202,-144 2208,-144 2214,-150 2214,-156 2214,-156 2214,-168 2214,-168 2214,-174 2208,-180 2202,-180"/>
<text text-anchor="middle" x="2117" y="-165" font-family="sans" font-size="10.00">download_pbmc_multiome</text>
<text text-anchor="middle" x="2117" y="-154" font-family="sans" font-size="10.00">dset: pbmc_multiome_10k_unsorted</text>
</g>
<!-- 24&#45;&gt;23 -->
<g id="edge48" class="edge">
<title>24&#45;&gt;23</title>
<path fill="none" stroke="grey" stroke-width="2" d="M2098.71,-143.7C2089.57,-135.05 2078.36,-124.45 2068.4,-115.03"/>
<polygon fill="grey" stroke="grey" stroke-width="2" points="2070.75,-112.43 2061.08,-108.1 2065.94,-117.52 2070.75,-112.43"/>
</g>
<!-- 25&#45;&gt;0 -->
<g id="edge11" class="edge">
<title>25&#45;&gt;0</title>
<path fill="none" stroke="grey" stroke-width="2" d="M2203.92,-73.78C2199.22,-73.17 2194.56,-72.57 2190,-72 2026.41,-51.52 1830.74,-31.04 1750.31,-22.79"/>
<polygon fill="grey" stroke="grey" stroke-width="2" points="1750.5,-19.29 1740.19,-21.75 1749.78,-26.25 1750.5,-19.29"/>
</g>
<!-- 26 -->
<g id="node27" class="node">
<title>26</title>
<path fill="none" stroke="#567bd8" stroke-width="2" stroke-dasharray="5,2" d="M2615.5,-180C2615.5,-180 2438.5,-180 2438.5,-180 2432.5,-180 2426.5,-174 2426.5,-168 2426.5,-168 2426.5,-156 2426.5,-156 2426.5,-150 2432.5,-144 2438.5,-144 2438.5,-144 2615.5,-144 2615.5,-144 2621.5,-144 2627.5,-150 2627.5,-156 2627.5,-156 2627.5,-168 2627.5,-168 2627.5,-174 2621.5,-180 2615.5,-180"/>
<text text-anchor="middle" x="2527" y="-165" font-family="sans" font-size="10.00">download_pbmc_multiome</text>
<text text-anchor="middle" x="2527" y="-154" font-family="sans" font-size="10.00">dset: pbmc_multiome_10k_chromium</text>
</g>
<!-- 26&#45;&gt;25 -->
<g id="edge52" class="edge">
<title>26&#45;&gt;25</title>
<path fill="none" stroke="grey" stroke-width="2" d="M2474.68,-143.97C2444.38,-134.1 2406.05,-121.62 2374.21,-111.25"/>
<polygon fill="grey" stroke="grey" stroke-width="2" points="2375.15,-107.88 2364.55,-108.11 2372.98,-114.53 2375.15,-107.88"/>
</g>
<!-- 27&#45;&gt;0 -->
<g id="edge12" class="edge">
<title>27&#45;&gt;0</title>
<path fill="none" stroke="grey" stroke-width="2" d="M2438.29,-73.03C2435.16,-72.67 2432.06,-72.33 2429,-72 2169.89,-44.24 1856.45,-26.47 1750.24,-20.89"/>
<polygon fill="grey" stroke="grey" stroke-width="2" points="1750.21,-17.39 1740.04,-20.36 1749.85,-24.38 1750.21,-17.39"/>
</g>
<!-- 28 -->
<g id="node29" class="node">
<title>28</title>
<path fill="none" stroke="#567bd8" stroke-width="2" stroke-dasharray="5,2" d="M2880,-180C2880,-180 2696,-180 2696,-180 2690,-180 2684,-174 2684,-168 2684,-168 2684,-156 2684,-156 2684,-150 2690,-144 2696,-144 2696,-144 2880,-144 2880,-144 2886,-144 2892,-150 2892,-156 2892,-156 2892,-168 2892,-168 2892,-174 2886,-180 2880,-180"/>
<text text-anchor="middle" x="2788" y="-165" font-family="sans" font-size="10.00">download_pbmc_multiome</text>
<text text-anchor="middle" x="2788" y="-154" font-family="sans" font-size="10.00">dset: pbmc_multiome_10k_chromiumX</text>
</g>
<!-- 28&#45;&gt;27 -->
<g id="edge56" class="edge">
<title>28&#45;&gt;27</title>
<path fill="none" stroke="grey" stroke-width="2" d="M2730.08,-143.97C2696.25,-134.01 2653.38,-121.41 2617.96,-110.99"/>
<polygon fill="grey" stroke="grey" stroke-width="2" points="2618.76,-107.57 2608.18,-108.11 2616.78,-114.29 2618.76,-107.57"/>
</g>
<!-- 29&#45;&gt;0 -->
<g id="edge13" class="edge">
<title>29&#45;&gt;0</title>
<path fill="none" stroke="grey" stroke-width="2" d="M2861.92,-84.84C2811.26,-81.27 2735.78,-76.06 2670,-72 2311.78,-49.9 1877.85,-27.42 1750.07,-20.88"/>
<polygon fill="grey" stroke="grey" stroke-width="2" points="1750.19,-17.39 1740.03,-20.37 1749.84,-24.38 1750.19,-17.39"/>
</g>
<!-- 30&#45;&gt;0 -->
<g id="edge14" class="edge">
<title>30&#45;&gt;0</title>
<path fill="none" stroke="grey" stroke-width="2" d="M3104.09,-143.94C3078.62,-135.25 3049.27,-123.26 3025,-108 3005.31,-95.62 3008.43,-81.06 2987,-72 2870.62,-22.8 1948.6,-19.2 1750.43,-19"/>
<polygon fill="grey" stroke="grey" stroke-width="2" points="1750.24,-15.5 1740.24,-18.99 1750.24,-22.5 1750.24,-15.5"/>
</g>
<!-- 30&#45;&gt;29 -->
<g id="edge60" class="edge">
<title>30&#45;&gt;29</title>
<path fill="none" stroke="grey" stroke-width="2" d="M3104.62,-143.97C3069.4,-133.86 3024.62,-121.02 2987.99,-110.51"/>
<polygon fill="grey" stroke="grey" stroke-width="2" points="2988.95,-107.14 2978.38,-107.75 2987.02,-113.87 2988.95,-107.14"/>
</g>
<!-- 31 -->
<g id="node32" class="node">
<title>31</title>
<path fill="none" stroke="#56d8b9" stroke-width="2" stroke-dasharray="5,2" d="M3223,-252C3223,-252 3105,-252 3105,-252 3099,-252 3093,-246 3093,-240 3093,-240 3093,-228 3093,-228 3093,-222 3099,-216 3105,-216 3105,-216 3223,-216 3223,-216 3229,-216 3235,-222 3235,-228 3235,-228 3235,-240 3235,-240 3235,-246 3229,-252 3223,-252"/>
<text text-anchor="middle" x="3164" y="-231.5" font-family="sans" font-size="10.00">convert_bmmc_multiome</text>
</g>
<!-- 31&#45;&gt;30 -->
<g id="edge63" class="edge">
<title>31&#45;&gt;30</title>
<path fill="none" stroke="grey" stroke-width="2" d="M3164,-215.7C3164,-207.98 3164,-198.71 3164,-190.11"/>
<polygon fill="grey" stroke="grey" stroke-width="2" points="3167.5,-190.1 3164,-180.1 3160.5,-190.1 3167.5,-190.1"/>
</g>
<!-- 32 -->
<g id="node33" class="node">
<title>32</title>
<path fill="none" stroke="#56d89a" stroke-width="2" stroke-dasharray="5,2" d="M3228,-324C3228,-324 3100,-324 3100,-324 3094,-324 3088,-318 3088,-312 3088,-312 3088,-300 3088,-300 3088,-294 3094,-288 3100,-288 3100,-288 3228,-288 3228,-288 3234,-288 3240,-294 3240,-300 3240,-300 3240,-312 3240,-312 3240,-318 3234,-324 3228,-324"/>
<text text-anchor="middle" x="3164" y="-303.5" font-family="sans" font-size="10.00">download_bmmc_multiome</text>
</g>
<!-- 32&#45;&gt;31 -->
<g id="edge65" class="edge">
<title>32&#45;&gt;31</title>
<path fill="none" stroke="grey" stroke-width="2" d="M3164,-287.7C3164,-279.98 3164,-270.71 3164,-262.11"/>
<polygon fill="grey" stroke="grey" stroke-width="2" points="3167.5,-262.1 3164,-252.1 3160.5,-262.1 3167.5,-262.1"/>
</g>
<!-- 33 -->
<g id="node34" class="node">
<title>33</title>
<path fill="none" stroke="#97d856" stroke-width="2" stroke-dasharray="5,2" d="M3062,-180C3062,-180 2960,-180 2960,-180 2954,-180 2948,-174 2948,-168 2948,-168 2948,-156 2948,-156 2948,-150 2954,-144 2960,-144 2960,-144 3062,-144 3062,-144 3068,-144 3074,-150 3074,-156 3074,-156 3074,-168 3074,-168 3074,-174 3068,-180 3062,-180"/>
<text text-anchor="middle" x="3011" y="-159.5" font-family="sans" font-size="10.00">download_bmmc_atac</text>
</g>
<!-- 33&#45;&gt;29 -->
<g id="edge61" class="edge">
<title>33&#45;&gt;29</title>
<path fill="none" stroke="grey" stroke-width="2" d="M2988.51,-143.7C2977.04,-134.88 2962.94,-124.03 2950.52,-114.47"/>
<polygon fill="grey" stroke="grey" stroke-width="2" points="2952.3,-111.43 2942.24,-108.1 2948.03,-116.98 2952.3,-111.43"/>
</g>
<!-- 34 -->
<g id="node35" class="node">
<title>34</title>
<path fill="none" stroke="#d89556" stroke-width="2" stroke-dasharray="5,2" d="M3174,-108C3174,-108 3046,-108 3046,-108 3040,-108 3034,-102 3034,-96 3034,-96 3034,-84 3034,-84 3034,-78 3040,-72 3046,-72 3046,-72 3174,-72 3174,-72 3180,-72 3186,-78 3186,-84 3186,-84 3186,-96 3186,-96 3186,-102 3180,-108 3174,-108"/>
<text text-anchor="middle" x="3110" y="-87.5" font-family="sans" font-size="10.00">download_bmmc_reference</text>
</g>
<!-- 34&#45;&gt;0 -->
<g id="edge16" class="edge">
<title>34&#45;&gt;0</title>
<path fill="none" stroke="grey" stroke-width="2" d="M3033.52,-73.77C3028.96,-73.1 3024.42,-72.5 3020,-72 2764.22,-42.82 1936.34,-23.75 1750.33,-19.78"/>
<polygon fill="grey" stroke="grey" stroke-width="2" points="1750.31,-16.27 1740.24,-19.56 1750.16,-23.27 1750.31,-16.27"/>
</g>
</g>
</svg>
